<?xml version="1.0" encoding="utf-8"?>
<!-- Generator: Adobe Illustrator 27.5.0, SVG Export Plug-In . SVG Version: 6.00 Build 0)  -->
<svg version="1.1" id="Layer_1" xmlns="http://www.w3.org/2000/svg" xmlns:xlink="http://www.w3.org/1999/xlink" x="0px" y="0px"
	 viewBox="0 0 183.92 183.92" style="enable-background:new 0 0 183.92 183.92;" xml:space="preserve">
<style type="text/css">
	.st0{fill:#D8D9D8;stroke:#010101;stroke-width:3;stroke-miterlimit:10;}
	.st1{fill:#1F718F;}
	.st2{fill:#F7F8F8;}
</style>
<g>
	<g>
		<path class="st0" d="M49.75,65.69c7.15,0.55,14.05,2.68,20.22,6.17"/>
		<path class="st0" d="M52.05,66.04c5.66-18.71,19.25-34.49,38.44-41.85c33.71-12.92,71.93,5.04,85.38,40.12
			c13.45,35.08-2.97,73.99-36.68,86.92c-18.96,7.27-39.35,4.77-55.96-5.06"/>
		<path class="st0" d="M97.67,127.01c-4.38,13.42-14.56,24.83-28.77,30.28c-25.02,9.59-53.08-2.91-62.68-27.94
			s2.91-53.08,27.94-62.68c6.94-2.66,14.11-3.62,21.06-3.09"/>
	</g>
	<path class="st1" d="M109.59,112.17c4,3.91,6.98,5.9,8.07,5.1c0.74-0.54,0.52-2.3-0.47-4.93c1.13,0.68,1.97,0.9,2.43,0.56
		c2.23-1.63-5.05-15.41-16.27-30.78C92.13,66.76,81.23,55.62,79,57.25c-0.77,0.56-0.41,2.55,0.84,5.53c-1-0.53-1.75-0.67-2.19-0.34
		c-0.41,0.3-0.52,0.99-0.37,1.99c-3.28-3.15-5.73-4.74-6.66-4.06c-0.94,0.69-0.13,3.6,1.95,7.81c-0.03,0.02-0.07,0.03-0.1,0.06
		c-0.52,0.38-0.69,1.19-0.55,2.37c-3.08-2.88-5.33-4.29-6.2-3.65c-0.56,0.41-0.48,1.63,0.12,3.46c-2.48-2.34-4.22-3.48-4.85-3.02
		c-1.82,1.33,6.11,15.3,17.72,31.21c11.61,15.91,22.5,27.73,24.32,26.4c0.73-0.53-0.12-3.12-2.15-7.05c1.2,0.77,2.09,1.04,2.56,0.69
		c0.23-0.17,0.35-0.47,0.37-0.9c3.7,3.3,6.52,4.87,7.71,4.01C112.8,120.82,111.97,117.25,109.59,112.17z"/>
	<path class="st2" d="M81.91,93.57c0.3-0.17,0.6-0.34,0.9-0.51c7.98-4.5,5.1-9.51-2.84-5.02c-19.91,10.84-32.79,17.51-33.08,16.99
		c-0.29-0.52,12.06-8.11,31.63-19.57c4.02-2.27,2.59-4.71-1.39-2.46c-7.08,3.94-13.12,6.36-13.64,5.43
		c-0.52-0.92,4.67-4.85,11.7-8.88c5-2.82,3.95-4.62-1.02-1.81c-9.92,5.48-17.43,9.3-17.65,8.91c-0.22-0.39,6.92-4.86,16.74-10.52
		c4.35-2.46,2.25-5.84-1.96-3.46c-32.16,18.17-53.08,42.03-46.72,53.3s37.6,5.67,69.76-12.5c6.78-3.83,3.39-9.97-3.45-6.11
		c-14.48,7.24-24.5,11.27-25.29,9.87c-0.79-1.4,7.83-7.9,21.51-16.56c4.56-2.58,1.93-7.17-2.6-4.6c-0.3,0.17-0.6,0.34-0.9,0.51
		c-19.91,11.25-36.43,19.69-36.9,18.87C46.24,114.61,62,104.82,81.91,93.57z"/>
	<path class="st2" d="M96.07,78.21c-12.44,7.45-10.76,10.27,1.69,2.82c16.05-9.13,28.97-14.68,30.12-12.75
		c1.16,1.93-9.83,10.7-25.46,20.54c-9.29,5.56-5.75,10.96,3.17,5.29c12.75-7.58,23.18-13.02,23.62-12.3
		c0.43,0.73-9.29,7.35-21.99,15.02c-6.37,3.81-4.21,7.17,2.05,3.43c5.23-2.85,8.8-4.52,9.04-4.12c0.24,0.39-2.91,2.75-7.9,6.02
		c-10.34,6.19-9.06,8.08,1.17,1.96c28.76-17.22,46.4-40.66,39.4-52.35c-7-11.69-35.99-7.2-64.75,10.02
		c-9.17,5.49-7.49,8.06,1.57,2.63c11.63-6.62,20.7-10.8,21.37-9.69c0.66,1.1-7.3,7.13-18.63,14.26c-6.86,4.11-3.25,9.82,3.47,5.79
		c16.96-10.01,30.47-17.11,31-16.23C125.54,59.42,112.9,67.98,96.07,78.21z"/>
</g>
</svg>
